<?xml version="1.0" encoding="UTF-8"?>
<!DOCTYPE svg PUBLIC "-//W3C//DTD SVG 1.1//EN" "http://www.w3.org/Graphics/SVG/1.1/DTD/svg11.dtd">
<!-- Creator: CorelDRAW X6 -->
<svg xmlns="http://www.w3.org/2000/svg" xml:space="preserve" width="1.60678in" height="1.60678in" version="1.1" style="shape-rendering:geometricPrecision; text-rendering:geometricPrecision; image-rendering:optimizeQuality; fill-rule:evenodd; clip-rule:evenodd"
viewBox="0 0 143 143"
 xmlns:xlink="http://www.w3.org/1999/xlink">
 <defs>
  <style type="text/css">
   <![CDATA[
    .fil0 {fill:#C74B16}
    .fil1 {fill:white}
   ]]>
  </style>
 </defs>
 <g id="Layer_x0020_1">
  <metadata id="CorelCorpID_0Corel-Layer"/>
  <rect class="fil0" width="143" height="143"/>
  <g id="_628287616">
   <path class="fil1" d="M54 40c-1,1 -1,0 -1,2 0,4 1,8 3,11 0,0 1,0 1,1 0,1 1,3 2,6 0,1 1,2 2,2 -1,1 -7,4 -9,5 -3,1 -7,3 -10,4 -1,1 -3,1 -4,2 -3,3 -6,9 -7,14 15,0 26,0 40,14l0 0c14,-13 25,-14 41,-14 -1,-3 -2,-7 -4,-10 -2,-3 -3,-4 -7,-6 -4,-2 -16,-7 -19,-9 0,-1 2,-2 3,-5 1,-3 0,-2 2,-4 0,0 0,-1 1,-1 2,-3 3,-6 3,-10 0,-2 0,-2 -1,-2 0,-7 0,-12 -3,-17 -3,-4 -7,-6 -14,-6 -7,0 -12,2 -14,6 -4,5 -3,10 -3,17l0 1z"/>
   <path class="fil1" d="M22 92c21,0 33,-1 50,15 16,-16 29,-15 50,-15 0,0 0,0 0,0 0,5 0,10 0,15 -2,0 -4,0 -7,0 -17,0 -33,8 -43,21 -10,-13 -26,-21 -43,-21 -2,0 -5,0 -7,0 0,-5 0,-10 0,-15 0,0 0,0 0,0z"/>
  </g>
 </g>
</svg>
