<?xml version="1.0" encoding="UTF-8"?>
<!DOCTYPE svg PUBLIC "-//W3C//DTD SVG 1.1//EN" "http://www.w3.org/Graphics/SVG/1.1/DTD/svg11.dtd">
<!-- Creator: CorelDRAW X6 -->
<svg xmlns="http://www.w3.org/2000/svg" xml:space="preserve" width="1.60678in" height="1.60678in" version="1.1" style="shape-rendering:geometricPrecision; text-rendering:geometricPrecision; image-rendering:optimizeQuality; fill-rule:evenodd; clip-rule:evenodd"
viewBox="0 0 267 267"
 xmlns:xlink="http://www.w3.org/1999/xlink">
 <defs>
  <style type="text/css">
   <![CDATA[
    .fil0 {fill:#27AE61}
    .fil1 {fill:white}
   ]]>
  </style>
 </defs>
 <g id="Layer_x0020_1">
  <metadata id="CorelCorpID_0Corel-Layer"/>
  <rect class="fil0" width="267" height="267"/>
  <g id="_628286128">
   <g>
    <path class="fil1" d="M87 128c5,-4 9,-10 9,-17l0 -16c0,-12 -10,-21 -21,-21 -12,0 -21,10 -21,21l0 16c0,7 4,14 9,17 -17,5 -29,21 -29,38l0 12c0,2 1,3 3,3l15 0c2,0 3,-1 3,-3 0,-2 -1,-3 -3,-3l-12 0 0 -9c0,-9 4,-17 11,-24 4,-4 9,-7 14,-8l3 6 -5 21c0,1 0,2 1,3l10 9c1,1 1,1 2,1 1,0 1,0 2,-1l10 -9c1,-1 1,-2 1,-3l-5 -21 3 -6c5,2 10,5 14,8 7,7 11,15 11,24l0 9 -49 0c-2,0 -3,1 -3,3 0,2 1,3 3,3l52 0c2,0 3,-1 3,-3l0 -12c0,-17 -12,-33 -29,-38l0 0zm-28 -33l0 0c0,-9 7,-15 15,-15 9,0 15,7 15,15l0 5c-6,-2 -9,-8 -9,-9 0,-1 -1,-2 -3,-2 -1,0 -2,1 -3,2 0,0 -4,8 -16,9l0 -5 0 0zm15 72l-6 -6 4 -18 4 0 4 18 -6 6 0 0zm-5 -35c1,0 1,0 2,0 0,0 0,0 0,0 0,0 1,0 1,0 0,0 0,0 0,0 0,0 1,0 1,0 0,0 0,0 0,0 0,0 0,0 0,0 0,0 1,0 1,0 0,0 0,0 0,0 0,0 1,0 1,0 0,0 0,0 0,0 1,0 1,0 2,0l-2 5 -5 0 -2 -5 0 0zm6 -6c0,0 0,0 -1,0 0,0 0,0 0,0 0,0 0,0 -1,0 -8,0 -15,-7 -15,-15l0 -5c10,-1 15,-5 19,-8 2,3 6,7 12,8l0 5c0,8 -7,15 -15,15z"/>
   </g>
   <g>
    <path class="fil1" d="M231 61l-22 0c-2,0 -3,1 -3,3 0,2 1,3 3,3l19 0 0 23 -51 0 0 -23 22 0c2,0 3,-1 3,-3 0,-2 -1,-3 -3,-3l-75 0c-2,0 -3,1 -3,3l0 29c0,2 1,3 3,3l106 0c2,0 3,-1 3,-3l0 -29c0,-2 -1,-3 -3,-3l0 0zm-60 29l-44 0 0 -23 44 0 0 23z"/>
   </g>
   <g>
    <path class="fil1" d="M231 116l-19 0 -46 0 0 0c-2,0 -3,1 -3,3 0,2 1,3 3,3l0 0 43 0 0 23 -81 0 0 -23 28 0 0 0c2,0 3,-1 3,-3 0,-2 -1,-3 -3,-3l0 0 -31 0c-2,0 -3,1 -3,3l0 29c0,2 1,3 3,3l106 0c2,0 3,-1 3,-3l0 -29c0,-2 -1,-3 -3,-3zm-3 29l-13 0 0 -23 13 0 0 23z"/>
   </g>
   <g>
    <path class="fil1" d="M231 171l-16 0c-2,0 -3,1 -3,3 0,2 1,3 3,3l13 0 0 23 -31 0 0 -23 8 0c2,0 3,-1 3,-3 0,-2 -1,-3 -3,-3l-80 0c-2,0 -3,1 -3,3l0 29c0,2 1,3 3,3l69 0 37 0c2,0 3,-1 3,-3l0 -29c0,-2 -1,-3 -3,-3l0 0zm-40 29l-63 0 0 -23 63 0 0 23 0 0 0 0z"/>
   </g>
  </g>
 </g>
</svg>
