<?xml version="1.0" encoding="UTF-8"?>
<!DOCTYPE svg PUBLIC "-//W3C//DTD SVG 1.1//EN" "http://www.w3.org/Graphics/SVG/1.1/DTD/svg11.dtd">
<!-- Creator: CorelDRAW X6 -->
<svg xmlns="http://www.w3.org/2000/svg" xml:space="preserve" width="1.60678in" height="1.60678in" version="1.1" style="shape-rendering:geometricPrecision; text-rendering:geometricPrecision; image-rendering:optimizeQuality; fill-rule:evenodd; clip-rule:evenodd"
viewBox="0 0 144 144"
 xmlns:xlink="http://www.w3.org/1999/xlink">
 <defs>
  <style type="text/css">
   <![CDATA[
    .fil4 {fill:none}
    .fil3 {fill:#1C2B36}
    .fil0 {fill:#E83A30}
    .fil5 {fill:#F1CC86}
    .fil6 {fill:#F4DAA7}
    .fil1 {fill:white}
    .fil2 {fill:white;fill-opacity:0.000000}
   ]]>
  </style>
     <clipPath id="id0">
      <path d="M66 73c4,0 7,0 11,0 1,0 2,1 1,1l-7 13c-2,-4 -5,-9 -7,-13 0,-1 1,-2 1,-1l0 0z"/>
     </clipPath>
     <clipPath id="id1">
      <path d="M66 73c4,0 7,0 11,0 1,0 2,1 1,1l-7 13c-2,-4 -5,-9 -7,-13 0,-1 1,-2 1,-1l0 0z"/>
     </clipPath>
     <clipPath id="id2">
      <path d="M67 69l-1 4 5 4c2,-1 3,-3 5,-4 -1,-1 -1,-3 -1,-5l-9 1 0 0z"/>
     </clipPath>
     <clipPath id="id3">
      <path d="M67 69l-1 4 5 4c2,-1 3,-3 5,-4 -1,-1 -1,-3 -1,-5l-9 1 0 0z"/>
     </clipPath>
     <clipPath id="id4">
      <path d="M63 61c0,-3 -1,-5 0,-8 1,0 -1,-2 8,0 2,0 5,-2 8,0 1,1 0,5 1,8 1,-1 1,-3 2,-3 2,2 1,5 -1,6 -1,0 -1,1 -1,1 -1,4 -4,7 -9,9 -4,-1 -7,-4 -8,-9 -1,0 -1,-1 -2,-2 -1,-1 -1,-3 0,-5 2,0 1,3 2,4z"/>
     </clipPath>
     <clipPath id="id5">
      <path d="M63 61c0,-3 -1,-5 0,-8 1,0 -1,-2 8,0 2,0 5,-2 8,0 1,1 0,5 1,8 1,-1 1,-3 2,-3 2,2 1,5 -1,6 -1,0 -1,1 -1,1 -1,4 -4,7 -9,9 -4,-1 -7,-4 -8,-9 -1,0 -1,-1 -2,-2 -1,-1 -1,-3 0,-5 2,0 1,3 2,4z"/>
     </clipPath>
 </defs>
 <g id="Layer_x0020_1">
  <metadata id="CorelCorpID_0Corel-Layer"/>
  <rect class="fil0" width="144" height="144"/>
  <g id="_486986304">
   <ellipse class="fil1" cx="72" cy="113" rx="58" ry="2"/>
   <rect class="fil1" x="56" y="97" width="31.0234" height="14.0858"/>
   <path class="fil1" d="M81 76c2,1 4,2 7,3 1,2 3,9 3,11 -9,5 -24,11 -39,-1 0,-1 1,-8 1,-10 2,-2 5,-3 8,-4 5,-3 15,-2 20,0l0 0z"/>
   <g>
    <rect class="fil1" x="71" y="59" width="2.13222" height="1.65806"/>
    <path class="fil1" d="M66 73c4,0 7,0 11,0 1,0 2,1 1,1l-7 13c-2,-4 -5,-9 -7,-13 0,-1 1,-2 1,-1l0 0z"/>
    <g style="clip-path:url(#id0)">
     <polygon class="fil2" points="64,73 78,73 78,88 64,88 "/>
    </g>
    <g style="clip-path:url(#id1)">
     <g>
      <polygon id="1" class="fil3" points="71,77 69,79 70,80 69,85 71,88 73,85 72,80 73,79 71,77 "/>
      <polygon class="fil3" points="71,77 73,80 78,74 78,72 77,72 76,73 76,73 "/>
      <polygon class="fil3" points="71,77 69,80 64,74 64,72 65,72 66,73 66,73 "/>
     </g>
    </g>
    <path class="fil4" d="M66 73c4,0 7,0 11,0 1,0 2,1 1,1l-7 13c-2,-4 -5,-9 -7,-13 0,-1 1,-2 1,-1l0 0z"/>
    <path class="fil1" d="M66 73c4,0 7,0 11,0 1,0 2,1 1,1l-7 13c-2,-4 -5,-9 -7,-13 0,-1 1,-2 1,-1l0 0z"/>
    <path class="fil1" d="M67 69l-1 4 5 4c2,-1 3,-3 5,-4 -1,-1 -1,-3 -1,-5l-9 1 0 0z"/>
    <g style="clip-path:url(#id2)">
     <polygon class="fil2" points="66,68 76,68 76,78 66,78 "/>
    </g>
    <g style="clip-path:url(#id3)">
     <g>
      <ellipse class="fil5" cx="85" cy="61" rx="4" ry="3"/>
     </g>
    </g>
    <path class="fil4" d="M67 69l-1 4 5 4c2,-1 3,-3 5,-4 -1,-1 -1,-3 -1,-5l-9 1 0 0z"/>
    <path class="fil1" d="M67 69l-1 4 5 4c2,-1 3,-3 5,-4 -1,-1 -1,-3 -1,-5l-9 1 0 0z"/>
    <path class="fil1" d="M63 61c0,-3 -1,-5 0,-8 1,0 -1,-2 8,0 2,0 5,-2 8,0 1,1 0,5 1,8 1,-1 1,-3 2,-3 2,2 1,5 -1,6 -1,0 -1,1 -1,1 -1,4 -4,7 -9,9 -4,-1 -7,-4 -8,-9 -1,0 -1,-1 -2,-2 -1,-1 -1,-3 0,-5 2,0 1,3 2,4z"/>
    <g style="clip-path:url(#id4)">
     <polygon class="fil2" points="59,52 83,52 83,72 59,72 "/>
    </g>
    <g style="clip-path:url(#id5)">
     <g>
      <rect class="fil6" x="86" y="51" width="12.7896" height="22.9004"/>
     </g>
    </g>
    <path class="fil4" d="M63 61c0,-3 -1,-5 0,-8 1,0 -1,-2 8,0 2,0 5,-2 8,0 1,1 0,5 1,8 1,-1 1,-3 2,-3 2,2 1,5 -1,6 -1,0 -1,1 -1,1 -1,4 -4,7 -9,9 -4,-1 -7,-4 -8,-9 -1,0 -1,-1 -2,-2 -1,-1 -1,-3 0,-5 2,0 1,3 2,4z"/>
    <path class="fil1" d="M63 61c0,-3 -1,-5 0,-8 1,0 -1,-2 8,0 2,0 5,-2 8,0 1,1 0,5 1,8 1,-1 1,-3 2,-3 2,2 1,5 -1,6 -1,0 -1,1 -1,1 -1,4 -4,7 -9,9 -4,-1 -7,-4 -8,-9 -1,0 -1,-1 -2,-2 -1,-1 -1,-3 0,-5 2,0 1,3 2,4z"/>
    <path class="fil1" d="M63 55c-1,2 -1,6 -1,9 -1,-4 -2,-4 -2,-8 0,0 -1,0 -1,1 0,-3 1,-5 2,-8l-1 1c4,-5 10,-7 15,-3 7,-1 6,5 7,6 0,0 -1,0 -1,0 1,1 1,3 1,4 0,0 -1,-1 -1,0 -1,3 -2,5 -3,8 0,-3 0,-6 -1,-9 0,1 -1,1 -1,2 0,-1 0,-2 0,-3 -2,0 -3,1 -5,1 1,-1 2,-2 4,-2 -4,1 -5,4 -13,3l0 0z"/>
   </g>
   <path class="fil1" d="M23 28l97 0c1,0 3,1 3,3l0 66c0,1 -1,3 -3,3l-97 0c-1,0 -3,-1 -3,-3l0 -66c0,-1 1,-3 3,-3zm3 5l92 0 0 54 -92 0 0 -54z"/>
  </g>
 </g>
</svg>
