<?xml version="1.0" encoding="UTF-8"?>
<!DOCTYPE svg PUBLIC "-//W3C//DTD SVG 1.1//EN" "http://www.w3.org/Graphics/SVG/1.1/DTD/svg11.dtd">
<!-- Creator: CorelDRAW X6 -->
<svg xmlns="http://www.w3.org/2000/svg" xml:space="preserve" width="1.60678in" height="1.60678in" version="1.1" style="shape-rendering:geometricPrecision; text-rendering:geometricPrecision; image-rendering:optimizeQuality; fill-rule:evenodd; clip-rule:evenodd"
viewBox="0 0 188 188"
 xmlns:xlink="http://www.w3.org/1999/xlink">
 <defs>
  <style type="text/css">
   <![CDATA[
    .fil0 {fill:#199DBA}
    .fil1 {fill:white}
   ]]>
  </style>
 </defs>
 <g id="Layer_x0020_1">
  <metadata id="CorelCorpID_0Corel-Layer"/>
  <g id="_556345200">
   <rect class="fil0" width="188" height="188"/>
   <rect class="fil0" x="15" y="15" width="158" height="158"/>
   <path class="fil1" d="M104 114c-2,6 -9,16 -9,27 0,4 0,4 1,5l66 0c0,0 0,0 0,0 0,0 2,-14 -8,-31 9,-16 13,-23 8,-46 -8,-34 -56,-36 -66,-1 -6,20 -2,33 7,47zm50 -31c-21,1 -30,-3 -39,-11 0,11 -7,20 -10,22 1,9 9,16 15,19 13,6 36,-1 33,-30l0 0zm-24 39l2 1 2 1 0 3 0 3 -2 1 1 10 10 0 0 -14c3,-1 6,-3 10,-4 -2,-5 -5,-8 -7,-10 -21,9 -19,6 -37,0 -2,2 -3,4 -6,10 3,1 7,2 10,4l0 14 10 0 2 -10 -2 -1 0 -3 0 -3 2 -1 2 -1 0 0zm-27 7l7 3 0 10 -9 0 2 -13 0 0zm52 0l-7 3 0 10 9 0 -2 -13 0 0z"/>
   <path class="fil1" d="M34 113c-2,4 -5,4 -9,13 -2,6 -4,13 -3,20l62 0c1,-13 -5,-27 -11,-33 3,-4 7,-8 8,-15 4,-22 -3,-41 -28,-41 -31,0 -33,32 -24,49 2,4 4,4 5,7l0 0zm-2 -30c-10,24 19,43 37,27 7,-6 7,-12 7,-22l-1 -5 -42 0 0 0zm39 49l0 10 8 0 -2 -12 -6 2 0 0zm-35 0l0 9 -8 0 2 -11 6 2zm18 -10c3,0 5,3 5,5 0,2 -1,4 -3,5l2 10 9 0 0 -13 9 -3c-1,-4 -4,-7 -7,-9 -13,5 -17,7 -31,0 -3,2 -5,4 -7,9l9 4 0 13 9 0 1 -10c-1,-1 -2,-2 -2,-5 0,-2 2,-5 5,-5l0 -1z"/>
  </g>
 </g>
</svg>
