<?xml version="1.0" encoding="UTF-8"?>
<!DOCTYPE svg PUBLIC "-//W3C//DTD SVG 1.1//EN" "http://www.w3.org/Graphics/SVG/1.1/DTD/svg11.dtd">
<!-- Creator: CorelDRAW X6 -->
<svg xmlns="http://www.w3.org/2000/svg" xml:space="preserve" width="1.60678in" height="1.60678in" version="1.1" style="shape-rendering:geometricPrecision; text-rendering:geometricPrecision; image-rendering:optimizeQuality; fill-rule:evenodd; clip-rule:evenodd"
viewBox="0 0 187 187"
 xmlns:xlink="http://www.w3.org/1999/xlink">
 <defs>
  <style type="text/css">
   <![CDATA[
    .fil4 {fill:none}
    .fil0 {fill:#002942}
    .fil2 {fill:#0D314F}
    .fil3 {fill:#FDFFFC}
    .fil1 {fill:white}
   ]]>
  </style>
    <clipPath id="id0">
     <path d="M140 148c8,0 16,0 24,0 0,8 -2,11 -10,14l-96 0c-6,0 -12,-5 -12,-10l0 -4c0,-37 0,-73 0,-110 -8,0 -16,0 -24,0 0,-8 4,-13 13,-14 31,0 62,0 93,0 5,1 9,5 12,10 0,0 0,0 0,0 0,1 0,3 0,4l0 110z"/>
    </clipPath>
     <clipPath id="id1">
     </clipPath>
     <clipPath id="id2">
      <path d="M140 148c8,0 16,0 24,0 0,8 -2,11 -10,14l-96 0c-6,0 -12,-5 -12,-10l0 -4c0,-37 0,-73 0,-110 -8,0 -16,0 -24,0 0,-8 4,-13 13,-14 31,0 62,0 93,0 5,1 9,5 12,10 0,0 0,0 0,0 0,1 0,3 0,4l0 110z"/>
     </clipPath>
 </defs>
 <g id="Layer_x0020_1">
  <metadata id="CorelCorpID_0Corel-Layer"/>
  <rect class="fil0" width="187" height="187"/>
  <g id="_628291096">
   <path class="fil1" d="M140 148c8,0 16,0 24,0 0,8 -2,11 -10,14l-96 0c-6,0 -12,-5 -12,-10l0 -4c0,-37 0,-73 0,-110 -8,0 -16,0 -24,0 0,-8 4,-13 13,-14 31,0 62,0 93,0 5,1 9,5 12,10 0,0 0,0 0,0 0,1 0,3 0,4l0 110z"/>
   <g style="clip-path:url(#id0)">
    <g>
     <ellipse class="fil1" cx="155" cy="151" rx="15" ry="12"/>
     <path class="fil1" d="M14 19l114 0 0 5c-7,1 -13,6 -13,12 0,1 0,2 0,3l-102 0 0 -20z"/>
     <polygon class="fil0" points="608,-315 616,-315 616,-241 612,-227 608,-241 "/>
    </g>
    <g style="clip-path:url(#id1)">
     <g>
      <rect class="fil2" x="596" y="-318" width="26.1993" height="12.1362"/>
      <rect class="fil1" x="606" y="-306" width="12.5218" height="3.27462"/>
      <rect class="fil3" x="607" y="-242" width="13.8696" height="8.66824"/>
      <rect class="fil2" x="608" y="-234" width="10.595" height="7.51263"/>
     </g>
    </g>
    <g style="clip-path:url(#id2)">
     <polygon class="fil4" points="608,-315 616,-315 616,-241 612,-227 608,-241 "/>
    </g>
   </g>
   <path class="fil4" d="M140 148c8,0 16,0 24,0 0,8 -2,11 -10,14l-96 0c-6,0 -12,-5 -12,-10l0 -4c0,-37 0,-73 0,-110 -8,0 -16,0 -24,0 0,-8 4,-13 13,-14 31,0 62,0 93,0 5,1 9,5 12,10 0,0 0,0 0,0 0,1 0,3 0,4l0 110z"/>
   <rect class="fil0" x="65" y="53" width="60.5851" height="4.55073"/>
   <rect class="fil0" x="65" y="69" width="39.2524" height="7.22455"/>
   <rect class="fil0" x="65" y="87" width="63.9986" height="7.22455"/>
   <rect class="fil0" x="65" y="105" width="31.2881" height="7.22455"/>
   <path class="fil0" d="M87 122l9 0 0 7 -9 0 0 -7zm-22 0l15 0 0 7 -15 0 0 -7z"/>
   <path class="fil0" d="M122 112c-1,0 -4,-2 -4,-2 0,0 -1,2 -1,2l-1 2c0,1 0,1 -1,1 -4,1 -4,1 -3,2 0,0 0,1 0,1 1,3 1,2 -1,4 0,1 -1,1 -1,2 0,0 1,1 1,1 0,0 0,0 0,0l2 2c0,1 0,3 0,4 0,1 1,0 2,1l2 0c0,0 0,0 0,0 0,1 2,4 2,4l4 -2c1,0 4,2 4,2 0,0 1,-1 1,-2 1,-3 0,-2 4,-3 1,0 1,0 1,0 0,-1 -1,-3 -1,-4 0,0 0,-1 0,-1l2 -3c1,-1 0,-1 -1,-2 0,0 0,0 -1,-1 0,0 -1,0 -1,-1 -1,-1 0,-1 0,-2 0,0 0,-1 0,-1 0,-4 1,-3 -2,-3 -2,0 -2,0 -2,-1l-2 -3c0,0 0,-1 -1,-1l-2 1c0,0 -1,0 -1,1 0,0 -1,1 -1,1zm-5 11c0,3 2,5 5,5 3,0 5,-2 5,-5 0,-4 -4,-6 -7,-5 0,0 -1,0 -1,0 -1,0 -1,1 -1,1 -1,1 -1,2 -1,3zm8 -2l0 0c0,0 0,1 0,1l-4 4c0,0 0,0 0,0 0,0 0,0 0,0l0 0c0,0 -1,0 -1,0l-2 -2c0,0 0,-1 0,-1l0 0c0,0 1,0 1,0l1 2 3 -4c0,0 1,0 1,0zm-11 15l0 22c0,0 0,0 0,0 0,0 0,0 1,0l5 -5c0,0 0,0 0,0 0,0 0,0 1,0 0,0 0,0 1,0 0,0 0,0 0,0l6 5c1,0 1,1 2,2l0 -23c0,0 -1,0 -1,0 0,0 0,1 -1,2 -1,2 0,2 -4,0 -1,-1 -1,-1 -3,1 -3,2 -2,2 -3,-1 0,0 -1,-2 -1,-2 -1,0 -1,1 -2,1zm1 -13c0,4 3,7 7,7 4,0 7,-3 7,-7 0,-5 -6,-8 -9,-6 0,0 -1,0 -1,1 -1,1 -1,1 -2,2 -1,1 -1,2 -1,4z"/>
  </g>
 </g>
</svg>
