<?xml version="1.0" encoding="UTF-8"?>
<!DOCTYPE svg PUBLIC "-//W3C//DTD SVG 1.1//EN" "http://www.w3.org/Graphics/SVG/1.1/DTD/svg11.dtd">
<!-- Creator: CorelDRAW X6 -->
<svg xmlns="http://www.w3.org/2000/svg" xml:space="preserve" width="1.60678in" height="1.60678in" version="1.1" style="shape-rendering:geometricPrecision; text-rendering:geometricPrecision; image-rendering:optimizeQuality; fill-rule:evenodd; clip-rule:evenodd"
viewBox="0 0 267 267"
 xmlns:xlink="http://www.w3.org/1999/xlink">
 <defs>
  <style type="text/css">
   <![CDATA[
    .fil2 {fill:none}
    .fil0 {fill:#FFA726}
    .fil1 {fill:white}
   ]]>
  </style>
    <clipPath id="id0">
     <path d="M29 42l11 0 0 12 -11 0 0 -12zm11 16l0 80 -11 0 0 -80 11 0zm-2 89l-3 10 -4 -10 7 0z"/>
    </clipPath>
 </defs>
 <g id="Layer_x0020_1">
  <metadata id="CorelCorpID_0Corel-Layer"/>
  <rect class="fil0" width="267" height="267"/>
  <g id="_556344480">
   <path class="fil1" d="M109 79l10 0c0,0 1,0 1,0 3,0 5,2 7,4l4 0c1,-1 3,-2 5,-3l0 0 1 0 59 0 0 3 4 0 0 102 -78 0 0 22 -7 -7 -7 7 0 -22 -54 0 0 -102 4 0 0 -4 50 0 0 0zm34 11l22 0 0 5 -22 0 0 -5zm27 0l17 0 0 26 -17 0 0 -26zm-27 69l44 0 0 5 -44 0 0 -5zm0 -12l44 0 0 5 -44 0 0 -5zm0 -12l44 0 0 5 -44 0 0 -5zm0 -12l44 0 0 5 -44 0 0 -5zm0 -12l22 0 0 5 -22 0 0 -5zm0 -11l22 0 0 5 -22 0 0 -5zm-79 -11l44 0 0 5 -44 0 0 -5zm0 70l44 0 0 5 -44 0 0 -5zm0 -12l44 0 0 5 -44 0 0 -5zm0 -12l44 0 0 5 -44 0 0 -5zm0 -12l44 0 0 5 -44 0 0 -5zm0 -12l44 0 0 5 -44 0 0 -5zm0 -11l44 0 0 5 -44 0 0 -5z"/>
   <path class="fil1" d="M158 204c10,6 21,11 31,17 10,-6 20,-11 30,-17 2,3 3,5 5,8 -11,2 -24,7 -36,21 -5,-7 -19,-18 -36,-21 2,-3 3,-6 5,-9zm31 -40l-49 27 49 28 40 -22 -35 -3c-1,1 -2,1 -5,1 -3,0 -8,-2 -8,-4 0,-2 4,-4 8,-4 3,0 6,1 7,2l42 3 -49 -27zm46 38c2,1 3,2 3,3 0,1 -1,2 -3,3l0 2 3 31 -11 0 3 -32 0 -2c-2,-1 -3,-2 -3,-3 0,-1 1,-2 3,-3l0 -7 -35 -3 0 -2 39 4 0 1 0 0 0 8z"/>
   <path class="fil1" d="M201 79c0,-6 0,-12 0,-18 0,-1 0,-2 0,-3 0,-1 0,-2 1,-2 1,0 1,1 1,2l0 9c0,4 0,8 0,12l-2 0zm16 -48l5 -5c0,0 1,0 1,0l0 0c0,0 0,1 0,1l-5 5c0,0 -1,0 -1,0l0 0c0,0 0,-1 0,-1zm8 8l6 -4c0,0 1,0 1,0l0 0c0,0 0,1 0,1l-6 4c0,0 -1,0 -1,0l0 0c0,0 0,-1 0,-1zm4 9l7 -3c0,0 1,0 1,0l0 0c0,0 0,1 0,1l-7 3c0,0 -1,0 -1,0l0 0c0,0 0,-1 0,-1zm1 12l7 0c0,0 1,0 1,1l0 0c0,0 0,1 -1,1l-7 0c0,0 -1,0 -1,-1l0 0c0,0 0,-1 1,-1zm-7 10l7 0c0,0 1,0 1,1l0 0c0,0 0,1 -1,1l-7 0c0,0 -1,0 -1,-1l0 0c0,0 0,-1 1,-1zm-35 -38l-5 -5c0,0 -1,0 -1,0l0 0c0,0 0,1 0,1l5 5c0,0 1,0 1,0l0 0c0,0 0,-1 0,-1zm-8 7l-6 -4c0,0 -1,0 -1,0l0 0c0,0 0,1 0,1l6 4c0,0 1,0 1,0l0 0c0,0 0,-1 0,-1zm-4 9l-7 -3c0,0 -1,0 -1,0l0 0c0,0 0,1 0,1l7 3c0,0 1,0 1,0l0 0c0,0 0,-1 0,-1zm3 11l-7 0c0,0 -1,0 -1,1l0 0c0,0 0,1 1,1l7 0c0,0 1,0 1,-1l0 0c0,0 0,-1 -1,-1zm3 11l-7 0c0,0 -1,0 -1,1l0 0c0,0 0,1 1,1l7 0c0,0 1,0 1,-1l0 0c0,0 0,-1 -1,-1zm26 21l-9 0c0,3 3,3 5,3 1,0 3,0 4,0 1,0 1,-1 1,-2 1,0 3,0 3,0 1,-1 1,-2 0,-3 0,0 -1,-1 -1,-1 0,0 1,-1 1,-2 0,-1 0,-1 -1,-2 0,0 1,-1 1,-2 0,-1 -1,-1 -1,-2 0,-1 1,-3 2,-4 4,-8 9,-12 9,-20 0,-2 -1,-5 -2,-7l-1 -2c0,0 0,-1 -1,-1 -2,-3 -6,-5 -9,-7 -8,-2 -16,1 -20,8 -4,6 -4,12 -1,18 1,3 3,5 4,7 1,1 1,2 2,4 0,1 1,1 1,2l1 2c0,0 0,0 0,0 -2,1 -1,3 0,4 0,1 -1,1 -1,2 0,1 0,1 1,2 0,0 -1,1 -1,2 0,1 1,1 2,2 1,0 9,0 10,0 0,0 1,0 1,0zm-4 -11c0,-4 0,-8 0,-11l0 -9c0,-1 0,-2 1,-2 1,0 1,1 1,2l0 14c0,2 0,4 0,6l-2 0z"/>
   <path class="fil1" d="M29 42l11 0 0 12 -11 0 0 -12zm11 16l0 80 -11 0 0 -80 11 0zm-2 89l-3 10 -4 -10 7 0z"/>
   <g style="clip-path:url(#id0)">
    <g>
     <rect class="fil0" x="-14" y="27" width="34.6342" height="16.0435"/>
    </g>
   </g>
   <path class="fil2" d="M29 42l11 0 0 12 -11 0 0 -12zm11 16l0 80 -11 0 0 -80 11 0zm-2 89l-3 10 -4 -10 7 0z"/>
  </g>
 </g>
</svg>
