<svg xmlns="http://www.w3.org/2000/svg" width="54.354" height="28.24" viewBox="0 0 54.354 28.24">
  <g id="DONASI_3" data-name="DONASI 3" transform="translate(-1043 -322)">
    <g id="berbayar2" transform="translate(15 -7)">
      <path id="Path_1098" data-name="Path 1098" d="M51.17,70.145H15.929c-1.258,0-1.212.01-1.223,0H3.186A3.188,3.188,0,0,0,0,73.33v6.688A1.062,1.062,0,0,0,1.062,81.08a3.185,3.185,0,0,1,0,6.37A1.062,1.062,0,0,0,0,88.511V95.2a3.189,3.189,0,0,0,3.185,3.185H51.17A3.189,3.189,0,0,0,54.355,95.2V88.511a1.062,1.062,0,0,0-1.062-1.062,3.185,3.185,0,0,1,0-6.37,1.062,1.062,0,0,0,1.062-1.062V73.33a3.188,3.188,0,0,0-3.185-3.185Zm-13.622,0h0Zm14.683,8.918a5.309,5.309,0,0,0,0,10.4V95.2a1.063,1.063,0,0,1-1.062,1.062H3.185A1.063,1.063,0,0,1,2.124,95.2V89.467a5.309,5.309,0,0,0,0-10.4V73.33a1.063,1.063,0,0,1,1.062-1.062H51.17a1.063,1.063,0,0,1,1.062,1.062Zm0,0" transform="translate(1027.999 258.855)" fill="#108770"/>
    </g>
    <path id="Path_8938" data-name="Path 8938" d="M7.15-3.615a3.91,3.91,0,0,1-.265,1.46A3.354,3.354,0,0,1,6.14-1.01a3.333,3.333,0,0,1-1.155.745A4.059,4.059,0,0,1,3.49,0H.73V-7.23H3.49a4.025,4.025,0,0,1,1.5.268,3.382,3.382,0,0,1,1.155.745,3.327,3.327,0,0,1,.745,1.142A3.91,3.91,0,0,1,7.15-3.615Zm-1.375,0a3.318,3.318,0,0,0-.16-1.068,2.262,2.262,0,0,0-.455-.8,1.962,1.962,0,0,0-.718-.5A2.469,2.469,0,0,0,3.49-6.16h-1.4v5.09h1.4a2.469,2.469,0,0,0,.953-.175,1.962,1.962,0,0,0,.718-.5,2.262,2.262,0,0,0,.455-.8A3.318,3.318,0,0,0,5.775-3.615Zm9.365,0a4.007,4.007,0,0,1-.265,1.473A3.488,3.488,0,0,1,14.13-.97,3.374,3.374,0,0,1,12.975-.2a3.9,3.9,0,0,1-1.5.278A3.915,3.915,0,0,1,9.983-.2,3.4,3.4,0,0,1,8.823-.97a3.469,3.469,0,0,1-.748-1.173A4.007,4.007,0,0,1,7.81-3.615a4.007,4.007,0,0,1,.265-1.472A3.469,3.469,0,0,1,8.823-6.26a3.4,3.4,0,0,1,1.16-.773,3.915,3.915,0,0,1,1.5-.277,3.866,3.866,0,0,1,1.5.28,3.422,3.422,0,0,1,1.155.773,3.461,3.461,0,0,1,.745,1.17A4.007,4.007,0,0,1,15.14-3.615Zm-1.38,0A3.367,3.367,0,0,0,13.6-4.683a2.258,2.258,0,0,0-.453-.8,1.948,1.948,0,0,0-.718-.505,2.469,2.469,0,0,0-.953-.175,2.487,2.487,0,0,0-.955.175,1.967,1.967,0,0,0-.722.505,2.267,2.267,0,0,0-.457.8,3.318,3.318,0,0,0-.16,1.068,3.318,3.318,0,0,0,.16,1.068,2.241,2.241,0,0,0,.457.8,1.98,1.98,0,0,0,.722.5,2.487,2.487,0,0,0,.955.175,2.469,2.469,0,0,0,.953-.175,1.962,1.962,0,0,0,.718-.5,2.232,2.232,0,0,0,.453-.8A3.367,3.367,0,0,0,13.76-3.615ZM16.9-7.23a1.244,1.244,0,0,1,.15.008.352.352,0,0,1,.107.03.361.361,0,0,1,.093.065,1.042,1.042,0,0,1,.1.112l3.8,4.835q-.02-.175-.028-.342t-.007-.312v-4.4H22.3V0H21.6a.616.616,0,0,1-.265-.05.59.59,0,0,1-.205-.18l-3.78-4.815q.015.16.022.318t.008.287V0H16.2V-7.23ZM30.115,0h-1.04a.454.454,0,0,1-.288-.087.5.5,0,0,1-.162-.218l-.54-1.475h-3L24.55-.305a.473.473,0,0,1-.158.21A.443.443,0,0,1,24.1,0H23.06L25.9-7.23h1.375Zm-4.68-2.73h2.3l-.88-2.405q-.06-.16-.132-.378t-.142-.472q-.07.255-.138.475t-.132.385Zm9.3-3.185a.371.371,0,0,1-.128.155.321.321,0,0,1-.173.045.438.438,0,0,1-.225-.078q-.125-.077-.295-.172a2.409,2.409,0,0,0-.4-.173,1.671,1.671,0,0,0-.537-.077,1.58,1.58,0,0,0-.487.068,1.032,1.032,0,0,0-.35.188.749.749,0,0,0-.212.287.944.944,0,0,0-.07.367A.639.639,0,0,0,32-4.88a1.19,1.19,0,0,0,.377.29,3.5,3.5,0,0,0,.535.215q.3.1.612.2a5.9,5.9,0,0,1,.612.25,2.123,2.123,0,0,1,.535.36,1.632,1.632,0,0,1,.377.533,1.849,1.849,0,0,1,.143.765,2.492,2.492,0,0,1-.167.918,2.117,2.117,0,0,1-.49.745,2.308,2.308,0,0,1-.787.5A2.9,2.9,0,0,1,32.685.08a3.434,3.434,0,0,1-.68-.068,3.58,3.58,0,0,1-.643-.193,3.355,3.355,0,0,1-.575-.3,2.829,2.829,0,0,1-.477-.39l.39-.645a.5.5,0,0,1,.132-.118A.324.324,0,0,1,31-1.68a.477.477,0,0,1,.27.1q.145.1.342.228a2.628,2.628,0,0,0,.465.227,1.8,1.8,0,0,0,.642.1,1.319,1.319,0,0,0,.89-.272.978.978,0,0,0,.315-.783.727.727,0,0,0-.143-.465,1.15,1.15,0,0,0-.377-.3,2.819,2.819,0,0,0-.535-.207q-.3-.085-.61-.185a5.26,5.26,0,0,1-.61-.24,1.976,1.976,0,0,1-.535-.365,1.661,1.661,0,0,1-.378-.562,2.144,2.144,0,0,1-.142-.832,1.971,1.971,0,0,1,.158-.77,1.971,1.971,0,0,1,.46-.665,2.271,2.271,0,0,1,.743-.465,2.7,2.7,0,0,1,1.005-.175,3.373,3.373,0,0,1,1.18.2,2.664,2.664,0,0,1,.92.56ZM37.74,0H36.39V-7.23h1.35Z" transform="translate(1051 340)" fill="#16a086" stroke="#16a086" stroke-width="0.3"/>
  </g>
</svg>
