<svg xmlns="http://www.w3.org/2000/svg" width="54.354" height="28.24" viewBox="0 0 54.354 28.24">
  <g id="free1" transform="translate(-1028 -329)">
    <path id="Path_1098" data-name="Path 1098" d="M51.17,70.145H15.929c-1.258,0-1.212.01-1.223,0H3.186A3.188,3.188,0,0,0,0,73.33v6.688A1.062,1.062,0,0,0,1.062,81.08a3.185,3.185,0,0,1,0,6.37A1.062,1.062,0,0,0,0,88.511V95.2a3.189,3.189,0,0,0,3.185,3.185H51.17A3.189,3.189,0,0,0,54.355,95.2V88.511a1.062,1.062,0,0,0-1.062-1.062,3.185,3.185,0,0,1,0-6.37,1.062,1.062,0,0,0,1.062-1.062V73.33a3.188,3.188,0,0,0-3.185-3.185Zm-13.622,0h0Zm14.683,8.918a5.309,5.309,0,0,0,0,10.4V95.2a1.063,1.063,0,0,1-1.062,1.062H3.185A1.063,1.063,0,0,1,2.124,95.2V89.467a5.309,5.309,0,0,0,0-10.4V73.33a1.063,1.063,0,0,1,1.062-1.062H51.17a1.063,1.063,0,0,1,1.062,1.062Zm0,0" transform="translate(1027.999 258.855)" fill="#108770"/>
    <g id="Group_5687" data-name="Group 5687" transform="translate(1042 338)">
      <path id="Path_8906" data-name="Path 8906" d="M91.924,221.282H87.809a1.028,1.028,0,0,0-1.029,1.029v8.231a1.029,1.029,0,1,0,2.058,0v-3.087H90.9a1.029,1.029,0,0,0,0-2.058H88.838V223.34h3.087a1.029,1.029,0,1,0,0-2.058Z" transform="translate(-86.78 -221.282)" fill="#16a086"/>
      <path id="Path_8907" data-name="Path 8907" d="M154.727,224.883a3.606,3.606,0,0,0-3.6-3.6h-2.572a1.028,1.028,0,0,0-1.029,1.029v8.231a1.029,1.029,0,1,0,2.058,0v-2.058h1.507l1.752,2.629a1.029,1.029,0,0,0,1.712-1.141l-1.407-2.111A3.6,3.6,0,0,0,154.727,224.883Zm-5.144-1.543h1.543a1.543,1.543,0,1,1,0,3.087h-1.543Z" transform="translate(-140.323 -221.282)" fill="#16a086"/>
      <path id="Path_8908" data-name="Path 8908" d="M222.093,223.34a1.029,1.029,0,0,0,0-2.058h-4.115a1.028,1.028,0,0,0-1.029,1.029v8.231a1.028,1.028,0,0,0,1.029,1.029h4.115a1.029,1.029,0,0,0,0-2.058h-3.086v-2.058h2.058a1.029,1.029,0,0,0,0-2.058h-2.058V223.34Z" transform="translate(-201.516 -221.282)" fill="#16a086"/>
      <path id="Path_8909" data-name="Path 8909" d="M282.839,229.513h-3.087v-2.058h1.029a1.029,1.029,0,1,0,0-2.058h-1.029V223.34h3.087a1.029,1.029,0,0,0,0-2.058h-4.115a1.028,1.028,0,0,0-1.029,1.029v8.231a1.028,1.028,0,0,0,1.029,1.029h4.115a1.029,1.029,0,0,0,0-2.058Z" transform="translate(-255.06 -221.282)" fill="#16a086"/>
    </g>
  </g>
</svg>
