<svg xmlns="http://www.w3.org/2000/svg" width="54.354" height="28.24" viewBox="0 0 54.354 28.24">
  <g id="berbayar2" transform="translate(-1028 -329)">
    <path id="Path_1098" data-name="Path 1098" d="M51.17,70.145H15.929c-1.258,0-1.212.01-1.223,0H3.186A3.188,3.188,0,0,0,0,73.33v6.688A1.062,1.062,0,0,0,1.062,81.08a3.185,3.185,0,0,1,0,6.37A1.062,1.062,0,0,0,0,88.511V95.2a3.189,3.189,0,0,0,3.185,3.185H51.17A3.189,3.189,0,0,0,54.355,95.2V88.511a1.062,1.062,0,0,0-1.062-1.062,3.185,3.185,0,0,1,0-6.37,1.062,1.062,0,0,0,1.062-1.062V73.33a3.188,3.188,0,0,0-3.185-3.185Zm-13.622,0h0Zm14.683,8.918a5.309,5.309,0,0,0,0,10.4V95.2a1.063,1.063,0,0,1-1.062,1.062H3.185A1.063,1.063,0,0,1,2.124,95.2V89.467a5.309,5.309,0,0,0,0-10.4V73.33a1.063,1.063,0,0,1,1.062-1.062H51.17a1.063,1.063,0,0,1,1.062,1.062Zm0,0" transform="translate(1027.999 258.855)" fill="#108770"/>
    <path id="Path_8937" data-name="Path 8937" d="M2.357,2.835V6.971H.388V-3.615H3.616a6.743,6.743,0,0,1,1.856.223,3.536,3.536,0,0,1,1.267.626,2.416,2.416,0,0,1,.725.963A3.21,3.21,0,0,1,7.694-.569,3.2,3.2,0,0,1,7.536.441a2.924,2.924,0,0,1-.454.864,3.059,3.059,0,0,1-.732.681,3.838,3.838,0,0,1-.992.469A1.951,1.951,0,0,1,6,3.062l2.65,3.909H6.881a.865.865,0,0,1-.436-.1.891.891,0,0,1-.3-.293L3.916,3.186a.781.781,0,0,0-.275-.271A.962.962,0,0,0,3.2,2.835Zm0-1.413h1.23a3.048,3.048,0,0,0,.97-.139A1.875,1.875,0,0,0,5.238.9a1.544,1.544,0,0,0,.4-.582,2.012,2.012,0,0,0,.132-.739A1.5,1.5,0,0,0,5.238-1.66a2.539,2.539,0,0,0-1.622-.432H2.357Zm9.59,1.823V6.971H9.978V-3.615h3.448a6.041,6.041,0,0,1,1.838.249,3.537,3.537,0,0,1,1.281.7A2.724,2.724,0,0,1,17.291-1.6,3.732,3.732,0,0,1,17.533-.24a3.762,3.762,0,0,1-.256,1.409,2.924,2.924,0,0,1-.769,1.1,3.578,3.578,0,0,1-1.281.717,5.7,5.7,0,0,1-1.8.256Zm0-1.537h1.479a2.967,2.967,0,0,0,.944-.135,1.754,1.754,0,0,0,.666-.388,1.591,1.591,0,0,0,.4-.615,2.354,2.354,0,0,0,.132-.809,2.135,2.135,0,0,0-.132-.769,1.52,1.52,0,0,0-.4-.586,1.759,1.759,0,0,0-.666-.37,3.124,3.124,0,0,0-.944-.128H11.947Z" transform="translate(1045.924 342.154)" fill="#16a086"/>
  </g>
</svg>
