<svg xmlns="http://www.w3.org/2000/svg" xmlns:xlink="http://www.w3.org/1999/xlink" width="146" height="146" viewBox="0 0 146 146">
  <defs>
    <clipPath id="clip-path">
      <rect id="Rectangle_2480" data-name="Rectangle 2480" width="146" height="146" transform="translate(1015 382)" fill="#fff" stroke="#707070" stroke-width="1"/>
    </clipPath>
    <linearGradient id="linear-gradient" x1="-1.842" y1="3.226" x2="-1.804" y2="3.183" gradientUnits="objectBoundingBox">
      <stop offset="0" stop-opacity="0.149"/>
      <stop offset="0.856" stop-opacity="0.024"/>
      <stop offset="1" stop-opacity="0"/>
    </linearGradient>
  </defs>
  <g id="Mask_Group_1" data-name="Mask Group 1" transform="translate(-1015 -382)" clip-path="url(#clip-path)">
    <g id="Tiket_Donasi" data-name="Tiket Donasi" transform="translate(3589 8715)">
      <path id="Path_1093" data-name="Path 1093" d="M138.888,339.28a11.4,11.4,0,0,1,11.261-11.4,5.7,5.7,0,0,0-5.558-4.44H15.7a5.7,5.7,0,0,0-5.558,4.44A11.4,11.4,0,0,1,10,350.686v17.965a5.7,5.7,0,0,0,5.7,5.7H144.591a5.7,5.7,0,0,0,5.7-5.7V350.686A11.407,11.407,0,0,1,138.888,339.28Zm0,0" transform="translate(-2581.148 -8564.209)" fill="#16a086"/>
      <path id="Path_1094" data-name="Path 1094" d="M104,307h86.686v41.062H104Zm0,0" transform="translate(-2648.344 -8552.456)" fill="#fff"/>
      <path id="Path_1098" data-name="Path 1098" d="M137.443,70.146H42.784c-3.378,0-3.255.026-3.284,0H8.555A8.564,8.564,0,0,0,0,78.7V96.665a2.852,2.852,0,0,0,2.852,2.852,8.555,8.555,0,1,1,0,17.109A2.851,2.851,0,0,0,0,119.477v17.965A8.565,8.565,0,0,0,8.555,146H137.443A8.565,8.565,0,0,0,146,137.442V119.477a2.851,2.851,0,0,0-2.852-2.852,8.555,8.555,0,0,1,0-17.109A2.852,2.852,0,0,0,146,96.665V78.7a8.564,8.564,0,0,0-8.555-8.555Zm-36.588,0H89.564c-5.291,0,0,0-8.066,0h19.357ZM140.295,94.1a14.26,14.26,0,0,0,0,27.943v15.4a2.855,2.855,0,0,1-2.852,2.852H8.555A2.855,2.855,0,0,1,5.7,137.442v-15.4A14.26,14.26,0,0,0,5.7,94.1V78.7a2.854,2.854,0,0,1,2.852-2.852H137.443a2.854,2.854,0,0,1,2.852,2.852Zm0,0" transform="translate(-2574 -8333)" fill="#108770"/>
      <path id="Path_1105" data-name="Path 1105" d="M186.172,441a2.852,2.852,0,1,0,2.016.835A2.874,2.874,0,0,0,186.172,441Zm0,0" transform="translate(-2705.046 -8648.246)" fill="#108770"/>
      <path id="Path_1106" data-name="Path 1106" d="M183.537,297H96.852A2.851,2.851,0,0,0,94,299.848v41.062a2.852,2.852,0,0,0,2.852,2.852H108.73a2.852,2.852,0,1,0,0-5.7H99.7V302.7h80.983v35.359H134.393a2.852,2.852,0,0,0,0,5.7h49.144a2.852,2.852,0,0,0,2.852-2.852V299.848A2.851,2.851,0,0,0,183.537,297Zm0,0" transform="translate(-2641.196 -8545.307)" fill="#108770"/>
      <g id="Group_256" data-name="Group 256" transform="translate(-82 90)">
        <path id="Path_1148" data-name="Path 1148" d="M75.552.142a2.132,2.132,0,0,0-2.083.313c-.075.06-7.959,6.193-14.281,8.192-1.5.474-3.618,1.064-6.047,1.744-11.6,3.243-21.464,6.193-24.736,9.465-3.649,3.649-6.045,18.029-6.817,23.323a25.585,25.585,0,1,0,29.7,25.289,25.29,25.29,0,0,0-1.7-9.045c3.8-2.134,7.709-3.616,10.454-3.878.6-.056,1.164-.081,1.724-.109,3.084-.144,6.277-.292,12.149-4.564,3.155-2.293,4.971-5.288,6.895-8.455,2.638-4.357,5.371-8.86,12.153-12.791a2.136,2.136,0,0,0,1.064-1.849C94.019,7.446,75.735.213,75.552.142Zm-37.669,44.8,4.232-8.952c1.152-.328,3.08-.9,4.582-1.477a16.013,16.013,0,0,0,1.511.72,12.109,12.109,0,0,1,2.6,1.4C48.579,39.756,42.716,42.963,37.883,44.937Z" transform="translate(-2443.001 -8400)" fill="#108770"/>
        <path id="Path_1149" data-name="Path 1149" d="M42.7,277.862a21.368,21.368,0,1,1,6.822-41.578,30.453,30.453,0,0,0-4.792,4.632,2.106,2.106,0,0,0-2.03-1.608,2.136,2.136,0,0,0-2.137,2.137v2.245a7.462,7.462,0,0,0,1.068,14.849H43.77a3.205,3.205,0,1,1,0,6.41H36.292a2.137,2.137,0,0,0,0,4.274h4.273v2.137a2.137,2.137,0,0,0,4.274,0v-2.245a7.462,7.462,0,0,0-1.068-14.849H41.634a3.205,3.205,0,0,1,0-6.41h.1a5.324,5.324,0,0,0,1.6,3.647,9.655,9.655,0,0,0,7.074,2.742c4.239,0,8.9-2.033,12.55-4.511a21.018,21.018,0,0,1,1.118,6.76A21.394,21.394,0,0,1,42.7,277.862Z" transform="translate(-2460.061 -8588.024)" fill="#ffca28"/>
        <path id="Path_1150" data-name="Path 1150" d="M23.472,258.539a21.393,21.393,0,0,1,21.368-21.368,20.28,20.28,0,0,1,3.324.29c.454-.4.9-.817,1.361-1.178a21.272,21.272,0,0,0-20.515,36.475A21.2,21.2,0,0,1,23.472,258.539Z" transform="translate(-2460.061 -8588.024)" fill="#fff" opacity="0.2"/>
        <path id="Path_1151" data-name="Path 1151" d="M180.791,58.588c-1.765,2.911-3.289,5.425-5.751,7.216-4.837,3.518-7.045,3.62-9.837,3.75-.626.029-1.26.061-1.932.125-4.328.411-10.6,3.072-15.967,6.778-4.77,3.3-11.306,5.448-14.369,2.385a1.305,1.305,0,0,1-.3-1.354c.68-3.347,6.907-8.75,10.279-10.112,4.052-1.636,13.731-6.066,16.13-11.846a2.139,2.139,0,0,0-.2-2,11.32,11.32,0,0,0-5.275-3.825c-.5-.217-1.152-.47-1.156-.48a2.14,2.14,0,0,0-2.713-.695,47.552,47.552,0,0,1-6.01,1.984,2.136,2.136,0,0,0-1.377,1.152l-5.126,10.849a25.665,25.665,0,0,0-7.577-1.278c1.2-7.781,3.439-17.946,5.462-19.969,2.746-2.744,15.341-6.266,22.866-8.372,2.479-.695,4.645-1.3,6.181-1.786,5.676-1.79,12.111-6.285,14.59-8.115,3.414,1.684,14.077,8.046,14.657,21.979C186.412,49.317,183.307,54.436,180.791,58.588Z" transform="translate(-2546.646 -8418.386)" fill="#fdd1b0"/>
        <path id="Path_1152" data-name="Path 1152" d="M151.867,314.806a21.019,21.019,0,0,0-1.118-6.76c-3.646,2.478-8.311,4.511-12.55,4.511a9.654,9.654,0,0,1-7.074-2.742l3.353,3.353a7.521,7.521,0,0,1,3.978,3.978l9.685,9.685A21.229,21.229,0,0,0,151.867,314.806Z" transform="translate(-2547.858 -8646.337)" fill="url(#linear-gradient)"/>
        <path id="Path_1153" data-name="Path 1153" d="M219.454,91.932c-4.006,5.075-5.791,8.7-12.153,15.225-5.76,5.906-21.256,9.28-29.739,20.15a22.741,22.741,0,0,0,8.094-3.613c5.371-3.706,11.64-6.366,15.967-6.778.668-.065,1.3-.1,1.932-.125,2.792-.129,5-.232,9.835-3.75,2.458-1.788,3.983-4.3,5.749-7.216,2.519-4.152,5.622-9.271,12.576-13.618a24.393,24.393,0,0,0-2.664-10.194A75.384,75.384,0,0,0,219.454,91.932Z" transform="translate(-2584.992 -8465.585)" opacity="0.1"/>
        <path id="Path_1154" data-name="Path 1154" d="M-2415.028-8347.708l-2.157-2.041-4.943,2.041-8.616,14.084,3.48,15.575,10.531,6.131,14.82-11.764,2.32-8.119h-7.622l-4.474-1.823-5.044-1.325-1.824-6.27,1.275-3.824Z" fill="#ffca28"/>
        <text id="Rp" transform="translate(-2430 -8320)" fill="#108770" font-size="22" font-family="Lato-Bold, Lato" font-weight="700"><tspan x="0" y="0">Rp</tspan></text>
        <path id="Path_1155" data-name="Path 1155" d="M-2414.969-8347.14s-3.98,5.012-2.34,10.067-7.425-.136-7.471-.318,2.46-10.66,2.87-10.66S-2414.969-8347.14-2414.969-8347.14Z" transform="translate(-0.2 -0.269)" fill="#ffca28"/>
      </g>
    </g>
  </g>
</svg>
